<?xml version="1.0" encoding="UTF-8" standalone="no"?>
<!-- Created with Inkscape (http://www.inkscape.org/) -->

<svg
   width="15.857781mm"
   height="16.080086mm"
   viewBox="0 0 15.857781 16.080086"
   version="1.1"
   id="svg5"
   xml:space="preserve"
   inkscape:version="1.2.1 (9c6d41e410, 2022-07-14)"
   sodipodi:docname="DOES_Logo.svg"
   inkscape:export-filename="DOES_Logo.png"
   inkscape:export-xdpi="300"
   inkscape:export-ydpi="300"
   xmlns:inkscape="http://www.inkscape.org/namespaces/inkscape"
   xmlns:sodipodi="http://sodipodi.sourceforge.net/DTD/sodipodi-0.dtd"
   xmlns="http://www.w3.org/2000/svg"
   xmlns:svg="http://www.w3.org/2000/svg"><sodipodi:namedview
     id="namedview7"
     pagecolor="#ffffff"
     bordercolor="#666666"
     borderopacity="1.0"
     inkscape:showpageshadow="2"
     inkscape:pageopacity="0.0"
     inkscape:pagecheckerboard="0"
     inkscape:deskcolor="#d1d1d1"
     inkscape:document-units="mm"
     showgrid="false"
     inkscape:zoom="7.1410774"
     inkscape:cx="90.672592"
     inkscape:cy="47.471828"
     inkscape:window-width="2560"
     inkscape:window-height="1377"
     inkscape:window-x="1912"
     inkscape:window-y="-8"
     inkscape:window-maximized="1"
     inkscape:current-layer="layer1" /><defs
     id="defs2" /><g
     inkscape:label="Layer 1"
     inkscape:groupmode="layer"
     id="layer1"
     transform="translate(-64.320358,-108.78144)"><rect
       style="fill:#f06e00;fill-opacity:1;stroke:none;stroke-width:0.079375"
       id="rect354"
       width="15.857781"
       height="16.080086"
       x="64.320358"
       y="108.78144"
       ry="1.1485778" /><g
       id="g4926"
       transform="matrix(0.8486025,0,0,0.8486025,10.196717,12.125782)"><path
         id="path3955-5"
         style="fill:#ffffff;fill-opacity:1;stroke:none;stroke-width:0.065;stroke-linecap:butt;stroke-linejoin:miter;stroke-dasharray:none;stroke-opacity:1"
         d="m 68.749275,118.38704 c -0.596763,0.0119 -0.669578,0.76373 0.02894,0.75035 v 3.26026 c -0.586616,0.0251 -0.697675,0.80594 0,0.82424 h 2.324923 c 2.331964,-0.41868 2.140873,-4.53984 0,-4.83485 h -2.324923 c -0.0097,-1.9e-4 -0.01947,-1.8e-4 -0.02894,0 z m 0.871781,0.74104 h 1.296562 c 0.449082,0.24296 0.850148,0.51918 0.981852,0.98186 v 1.40766 c -0.112316,0.49885 -0.442971,0.74591 -0.875399,0.8754 l -1.403015,0.005 z" /><path
         id="path4114-3-4"
         style="fill:#ffffff;fill-opacity:1;stroke:none;stroke-width:0.0649999;stroke-dasharray:none;stroke-opacity:1"
         d="m 75.671509,118.28367 a 2.2971556,2.5194609 0 0 0 -2.29702,2.51923 2.2971556,2.5194609 0 0 0 2.29702,2.51974 2.2971556,2.5194609 0 0 0 2.29702,-2.51974 2.2971556,2.5194609 0 0 0 -2.29702,-2.51923 z m 0,0.72244 a 1.5931886,1.7969685 0 0 1 1.59318,1.79679 1.5931886,1.7969685 0 0 1 -1.59318,1.79731 1.5931886,1.7969685 0 0 1 -1.59319,-1.79731 1.5931886,1.7969685 0 0 1 1.59319,-1.79679 z" /><path
         style="fill:#ffffff;fill-opacity:1;stroke:none;stroke-width:0.065;stroke-linecap:butt;stroke-linejoin:miter;stroke-dasharray:none;stroke-opacity:1"
         d="m 69.1763,124.3244 -0.366785,-0.003 c -0.464415,-0.0339 -0.412017,-0.78162 -8.18e-4,-0.80484 l 0.367603,0.002 h 3.529097 v 1.45425 c -0.05921,0.38911 -0.777694,0.3181 -0.759542,0 v -0.62986 h -1.963698 v 1.15784 h 0.741018 v -0.33346 c 0.05133,-0.29162 0.668846,-0.32787 0.768806,0 v 1.53761 c -0.07133,0.31595 -0.686157,0.30912 -0.722492,0 v -0.38903 h -0.833645 v 1.29678 h 2.260106 v -0.81512 c 0.05158,-0.25723 0.732928,-0.17999 0.750279,0 v 1.58392 h -4.205277 c -0.341954,-0.0726 -0.309524,-0.71014 0,-0.75954 h 0.453874 z"
         id="path4141-8"
         sodipodi:nodetypes="cccccccccccccccccccccccccc" /><path
         style="fill:#ffffff;fill-opacity:1;stroke:none;stroke-width:0.065;stroke-linecap:butt;stroke-linejoin:miter;stroke-dasharray:none;stroke-opacity:1"
         d="m 74.854351,124.65786 -0.0093,0.3983 c 0.0148,0.17084 0.293616,0.3548 0.518712,0.37977 l 1.426459,0.2964 c 0.514791,0.077 0.955094,0.58521 0.972587,0.88923 v 0.88922 c -0.009,0.39174 -0.687185,0.93703 -1.194892,0.95406 h -1.111526 l -0.703968,-0.25936 h -0.222266 l -0.04586,0.17115 -0.287599,0.0141 c -0.149873,-0.001 -0.272178,-0.0728 -0.277881,-0.27789 v -1.07447 c -0.0036,-0.14255 0.04146,-0.23643 0.194516,-0.22231 h 0.305671 c 0.08418,0.007 0.168768,0.0567 0.17599,0.16673 v 0.21304 c 0.014,0.19564 0.591695,0.50028 0.889222,0.52901 h 0.713229 c 0.354665,-0.0127 0.790112,-0.28303 0.796595,-0.40859 v -0.46314 c -0.02681,-0.23679 -0.455484,-0.38616 -0.741016,-0.44461 l -1.416076,-0.31932 c -0.363041,-0.13753 -0.679966,-0.52862 -0.751404,-0.75515 -0.10696,-0.29758 -0.163913,-0.58687 0,-0.95406 0.234521,-0.41311 0.553047,-0.7565 1.031438,-0.89961 0.0655,-0.0196 0.209109,-0.062 0.264781,-0.0653 l 0.76937,-0.0172 0.30567,0.0371 0.500187,0.26862 0.09263,-0.11116 c 0.09647,-0.118 0.326365,-0.12174 0.444608,0 0.05282,0.0648 0.112316,0.0969 0.129681,0.19452 v 1.13005 c -0.03911,0.36076 -0.664154,0.35449 -0.71323,0 l -0.0093,-0.26861 c -0.02203,-0.16182 -0.369277,-0.45903 -0.592815,-0.44462 h -0.898485 c -0.248293,-0.003 -0.551905,0.24201 -0.555728,0.45411 z"
         id="path4157-1"
         sodipodi:nodetypes="cccccccccccccccccccccccccccccccccccccccc" /></g></g></svg>
